<svg width="25" height="24" viewBox="0 0 25 24" fill="none" xmlns="http://www.w3.org/2000/svg">
<path fill-rule="evenodd" clip-rule="evenodd" d="M15.7627 14.5555H16.5543L21.5541 19.3212L20.0612 20.7413L15.0514 15.9852V15.2323L14.7808 14.9654C13.6386 15.8994 12.1557 16.4618 10.5425 16.4618C6.94549 16.4618 4.02979 13.6882 4.02979 10.2665C4.02979 6.84476 6.94549 4.07117 10.5425 4.07117C14.1396 4.07117 17.0553 6.84476 17.0553 10.2665C17.0553 11.801 16.4641 13.2116 15.4822 14.2982L15.7627 14.5555ZM6.03371 10.2665C6.03371 12.6398 8.04765 14.5555 10.5425 14.5555C13.0374 14.5555 15.0514 12.6398 15.0514 10.2665C15.0514 7.8932 13.0374 5.97742 10.5425 5.97742C8.04765 5.97742 6.03371 7.8932 6.03371 10.2665Z" fill="#4B4B4B"/>
</svg>
