<svg width="25" height="24" viewBox="0 0 25 24" fill="none" xmlns="http://www.w3.org/2000/svg">
<path fill-rule="evenodd" clip-rule="evenodd" d="M19.1908 12.3777C18.8502 12.9686 18.1889 13.3594 17.4374 13.3594H9.97281L8.87065 15.2656H20.8942V17.1719H8.87065C7.34767 17.1719 6.38579 15.6183 7.11722 14.3411L8.46987 12.0155L4.86281 4.78125H2.85889V2.875H6.1353L7.07714 4.78125H21.9062C22.6677 4.78125 23.1486 5.56281 22.7779 6.19187L19.1908 12.3777ZM20.2028 6.6875H8.029L10.4037 11.4531H17.4374L20.2028 6.6875ZM8.87065 18.125C7.76849 18.125 6.87675 18.9828 6.87675 20.0312C6.87675 21.0797 7.76849 21.9375 8.87065 21.9375C9.97281 21.9375 10.8746 21.0797 10.8746 20.0312C10.8746 18.9828 9.97281 18.125 8.87065 18.125ZM16.8964 20.0312C16.8964 18.9828 17.7881 18.125 18.8903 18.125C19.9924 18.125 20.8942 18.9828 20.8942 20.0312C20.8942 21.0797 19.9924 21.9375 18.8903 21.9375C17.7881 21.9375 16.8964 21.0797 16.8964 20.0312Z" fill="#4B4B4B"/>
</svg>
